<svg width="178" height="145" viewBox="0 0 178 145" fill="none" xmlns="http://www.w3.org/2000/svg">
<path d="M25.0655 3.62881C25.0655 4.51496 24.3059 6.28727 23.04 9.19892C21.6475 12.1106 20.5081 14.3892 19.8752 16.035C17.0901 22.6178 15.0646 28.5677 13.9253 34.0112C12.7859 39.4547 12.153 45.1514 12.153 50.9747C12.153 56.2917 12.6593 61.6086 13.6721 66.6723C14.5582 71.6095 16.0774 76.6732 18.1029 81.7369C19.1156 84.3954 20.6347 87.6868 22.407 91.358C24.1793 95.0292 25.0655 97.3079 25.0655 98.1941C25.0655 99.0802 24.8123 99.8398 24.4325 100.346C24.0527 100.853 23.5464 101.106 22.9134 101.106C21.6475 101.106 20.2549 100.473 18.6092 99.0802C17.0901 97.6877 15.1912 95.5356 13.1657 92.624C8.73495 86.2943 5.44352 79.7114 3.29143 72.7488C1.13934 65.7862 0 58.5703 0 50.9747C0 44.0121 0.886154 37.3026 2.65846 30.973C4.55736 24.6433 7.21582 18.5668 10.887 12.6169C13.2923 8.69254 15.4444 5.78089 17.4699 3.7554C19.4954 1.8565 21.2677 0.84375 22.9134 0.84375C23.5464 0.84375 24.0527 1.09694 24.4325 1.60332C24.8123 2.10969 25.0655 2.74265 25.0655 3.62881Z" fill="white"/>
<path d="M151.953 98.1941C151.953 97.3079 152.713 95.5356 154.105 92.7506C155.498 89.8389 156.51 87.6868 157.27 85.9145C160.055 79.3316 162.08 73.2552 163.22 67.8117C164.486 62.3681 164.992 56.798 164.992 50.9747C164.992 45.6578 164.486 40.4675 163.473 35.4037C162.46 30.34 160.941 25.2763 158.916 20.0859C157.776 17.4275 156.384 14.1361 154.611 10.4649C152.839 6.79364 151.953 4.51496 151.953 3.62881C151.953 2.74265 152.206 2.10969 152.586 1.60332C152.966 1.09694 153.599 0.84375 154.232 0.84375C155.624 0.84375 157.017 1.47672 158.536 2.86925C160.055 4.13518 161.954 6.28727 163.979 9.19892C168.41 15.5286 171.702 22.1114 173.854 29.0741C176.006 36.0367 177.145 43.3791 177.145 50.9747C177.145 57.9374 176.259 64.5202 174.36 70.9765C172.588 77.3062 169.803 83.3826 166.131 89.3325C163.6 93.3835 161.321 96.2952 159.422 98.1941C157.523 100.093 155.751 101.106 154.232 101.106C153.599 101.106 152.966 100.853 152.586 100.22C152.206 99.7132 151.953 99.0802 151.953 98.1941Z" fill="white"/>
<path d="M51.7598 68.4263C56.615 68.4263 60.551 64.4903 60.551 59.6351C60.551 54.7798 56.615 50.8439 51.7598 50.8439C46.9045 50.8439 42.9686 54.7798 42.9686 59.6351C42.9686 64.4903 46.9045 68.4263 51.7598 68.4263Z" fill="white"/>
<path d="M125.584 68.4263C120.728 68.4263 116.792 64.4903 116.792 59.6351C116.792 54.7798 120.728 50.8439 125.584 50.8439C130.439 50.8439 134.375 54.7798 134.375 59.6351C134.375 64.4903 130.439 68.4263 125.584 68.4263Z" fill="white"/>
<path d="M1.86173 136.11V125.18H1.62151C1.08101 125.18 0.690642 125.03 0.420391 124.76C0.15014 124.489 0 124.099 0 123.559C0 122.988 0.15014 122.568 0.450419 122.327C0.750698 122.057 1.20112 121.937 1.86173 121.937H5.49511C7.53701 121.937 9.0384 122.027 9.96927 122.207C10.9302 122.387 11.7409 122.658 12.4015 123.078C13.5726 123.769 14.4735 124.79 15.104 126.081C15.7346 127.402 16.0649 128.903 16.0649 130.615C16.0649 132.417 15.7046 134.008 14.9839 135.359C14.2633 136.711 13.2423 137.732 11.9211 138.422C11.3205 138.753 10.6299 138.963 9.81913 139.113C9.0384 139.263 7.83729 139.323 6.24581 139.323H1.86173C1.20112 139.323 0.72067 139.203 0.420391 138.963C0.15014 138.693 0 138.272 0 137.702C0 137.191 0.15014 136.771 0.420391 136.501C0.690642 136.26 1.08101 136.11 1.62151 136.11H1.86173ZM5.64525 125.12V136.11H6.48603C8.34776 136.11 9.69902 135.66 10.5698 134.759C11.4707 133.858 11.8911 132.447 11.8911 130.585C11.8911 128.723 11.4406 127.372 10.5698 126.441C9.66899 125.54 8.31773 125.09 6.51606 125.09C6.27584 125.09 6.09567 125.09 5.97556 125.09C5.85544 125.09 5.73533 125.12 5.64525 125.12Z" fill="white"/>
<path d="M32.2023 135.782H32.4426C32.953 135.782 33.3734 135.932 33.6437 136.203C33.9139 136.473 34.0641 136.893 34.0641 137.404C34.0641 137.974 33.9139 138.365 33.6437 138.635C33.3434 138.875 32.8629 138.995 32.2023 138.995H30.821C30.3406 138.995 29.9803 138.905 29.74 138.725C29.4998 138.545 29.2896 138.185 29.1395 137.704C28.3287 138.245 27.4579 138.665 26.5571 138.935C25.6562 139.206 24.7254 139.356 23.7945 139.356C22.2331 139.356 21.0019 138.965 20.1011 138.185C19.2002 137.404 18.7498 136.323 18.7498 134.972C18.7498 133.5 19.3203 132.359 20.4914 131.548C21.6625 130.738 23.284 130.347 25.386 130.347C25.8664 130.347 26.3469 130.377 26.8874 130.407C27.3979 130.467 27.9984 130.557 28.659 130.648V130.377C28.659 129.507 28.4488 128.816 28.0284 128.365C27.578 127.915 26.9775 127.675 26.1367 127.675C25.4761 127.675 24.6653 127.915 23.6744 128.395C22.6534 128.876 21.9328 129.116 21.4523 129.116C21.0019 129.116 20.6115 128.966 20.3413 128.696C20.071 128.456 19.9209 128.095 19.9209 127.645C19.9209 126.864 20.4914 126.233 21.6625 125.753C22.8036 125.303 24.3951 125.062 26.3769 125.062C28.4789 125.062 29.9502 125.453 30.8511 126.263C31.7519 127.074 32.2023 128.426 32.2023 130.347V135.782ZM28.659 132.96C28.1786 132.84 27.7282 132.78 27.3078 132.719C26.8874 132.659 26.5271 132.629 26.1667 132.629C25.0857 132.629 24.2449 132.81 23.6444 133.17C23.0138 133.53 22.7135 134.041 22.7135 134.671C22.7135 135.242 22.9237 135.662 23.3141 135.963C23.7044 136.263 24.2449 136.413 24.9956 136.413C25.6562 136.413 26.2868 136.323 26.8874 136.113C27.4879 135.932 28.0885 135.632 28.659 135.212V132.96Z" fill="white"/>
<path d="M46.118 135.778H49.2709C49.9616 135.778 50.442 135.898 50.7123 136.138C50.9825 136.379 51.1327 136.799 51.1327 137.37C51.1327 137.94 50.9825 138.361 50.7123 138.601C50.412 138.871 49.9316 138.991 49.2709 138.991H39.3617C38.7011 138.991 38.2207 138.871 37.9204 138.601C37.6501 138.361 37.5 137.94 37.5 137.37C37.5 136.799 37.6501 136.379 37.9204 136.138C38.1906 135.898 38.6711 135.778 39.3617 135.778H42.5147V128.662H40.8631C40.2025 128.662 39.7221 128.541 39.4518 128.271C39.1816 128.031 39.0314 127.611 39.0314 127.04C39.0314 126.47 39.1515 126.049 39.4518 125.809C39.7221 125.569 40.1725 125.449 40.8631 125.449H45.2772C45.5475 125.449 45.7577 125.509 45.9078 125.599C46.058 125.719 46.118 125.869 46.118 126.079V135.778ZM44.0161 118.812C44.7367 118.812 45.1871 118.963 45.4274 119.233C45.6676 119.503 45.7877 120.164 45.7877 121.185C45.7877 122.176 45.6676 122.806 45.4574 123.046C45.2472 123.287 44.7668 123.407 43.986 123.407C43.2053 123.407 42.7249 123.287 42.5147 123.076C42.2744 122.836 42.1844 122.386 42.1844 121.725C42.1844 120.464 42.3045 119.683 42.5147 119.323C42.7549 118.993 43.2353 118.812 44.0161 118.812Z" fill="white"/>
<path d="M64.0865 135.569H67.2395C67.9001 135.569 68.3805 135.689 68.6508 135.929C68.921 136.169 69.0712 136.59 69.0712 137.16C69.0712 137.731 68.921 138.151 68.6508 138.391C68.3805 138.662 67.9001 138.782 67.2395 138.782H57.3002C56.6396 138.782 56.1591 138.662 55.8889 138.391C55.6186 138.151 55.4685 137.731 55.4685 137.16C55.4685 136.59 55.6186 136.169 55.8889 135.929C56.1591 135.689 56.6096 135.569 57.3002 135.569H60.4531V122.837H58.8316C58.171 122.837 57.6906 122.717 57.3903 122.447C57.12 122.206 56.9699 121.786 56.9699 121.215C56.9699 120.645 57.12 120.224 57.3903 119.984C57.6906 119.714 58.171 119.594 58.8316 119.594H63.2157C63.486 119.594 63.6962 119.654 63.8463 119.744C63.9964 119.864 64.0865 120.014 64.0865 120.224V135.569Z" fill="white"/>
<path d="M77.4603 128.276L80.1028 134.522L82.8653 128.276H82.6251C82.1146 128.276 81.6943 128.126 81.424 127.855C81.1537 127.585 81.0036 127.195 81.0036 126.654C81.0036 126.084 81.1537 125.663 81.424 125.423C81.6943 125.183 82.1747 125.063 82.8653 125.063H86.3186C87.0092 125.063 87.4896 125.183 87.7599 125.423C88.0301 125.693 88.1803 126.084 88.1803 126.654C88.1803 127.195 88.0301 127.585 87.7599 127.855C87.4896 128.126 87.0993 128.276 86.5588 128.276H86.3186L80.2829 141.218H80.9436C81.6042 141.218 82.0846 141.338 82.3849 141.608C82.6551 141.848 82.8053 142.269 82.8053 142.839C82.8053 143.41 82.6551 143.83 82.3849 144.071C82.0846 144.341 81.6042 144.461 80.9436 144.461H74.5176C73.857 144.461 73.3765 144.341 73.0762 144.071C72.806 143.83 72.6558 143.41 72.6558 142.839C72.6558 142.269 72.806 141.848 73.0762 141.608C73.3765 141.338 73.857 141.218 74.5176 141.218H76.7997L78.181 138.275L73.7369 128.276H73.4966C72.9561 128.276 72.5658 128.126 72.2955 127.855C71.9952 127.585 71.8751 127.195 71.8751 126.654C71.8751 126.084 72.0253 125.663 72.2955 125.423C72.5658 125.183 73.0462 125.063 73.7369 125.063H77.4603C78.1209 125.063 78.6014 125.183 78.9017 125.423C79.1719 125.693 79.322 126.084 79.322 126.654C79.322 127.195 79.1719 127.585 78.9017 127.855C78.6314 128.126 78.211 128.276 77.7005 128.276H77.4603Z" fill="white"/>
<path d="M113.638 131.726V136.2H115.83C117.392 136.2 118.473 136.02 119.103 135.69C119.764 135.359 120.064 134.759 120.064 133.978C120.064 133.167 119.764 132.597 119.163 132.237C118.563 131.906 117.482 131.726 115.98 131.726H113.638ZM121.115 130.105C122.166 130.495 122.947 131.035 123.457 131.696C123.968 132.387 124.208 133.258 124.208 134.309C124.208 135.209 123.998 136.02 123.547 136.741C123.127 137.461 122.526 138.062 121.716 138.542C121.235 138.813 120.725 139.023 120.124 139.143C119.554 139.263 118.743 139.323 117.662 139.323H110.005C109.374 139.323 108.894 139.203 108.624 138.933C108.353 138.693 108.203 138.272 108.203 137.702C108.203 137.191 108.353 136.771 108.593 136.501C108.864 136.26 109.254 136.11 109.765 136.11H110.005V125.18H109.765C109.254 125.18 108.864 125.03 108.593 124.76C108.353 124.489 108.203 124.099 108.203 123.559C108.203 122.988 108.353 122.568 108.624 122.327C108.924 122.057 109.374 121.937 110.005 121.937H116.761C118.833 121.937 120.394 122.327 121.445 123.138C122.526 123.949 123.067 125.12 123.067 126.651C123.067 127.432 122.887 128.093 122.556 128.663C122.256 129.264 121.746 129.744 121.115 130.105ZM113.638 125.09V128.783H115.62C116.821 128.783 117.662 128.633 118.142 128.363C118.653 128.063 118.893 127.582 118.893 126.922C118.893 126.291 118.683 125.811 118.232 125.54C117.782 125.24 117.061 125.09 116.07 125.09H113.638Z" fill="white"/>
<path d="M136.352 135.778H139.505C140.196 135.778 140.676 135.898 140.947 136.138C141.217 136.379 141.367 136.799 141.367 137.37C141.367 137.94 141.217 138.361 140.947 138.601C140.646 138.871 140.166 138.991 139.505 138.991H129.596C128.935 138.991 128.455 138.871 128.155 138.601C127.884 138.361 127.734 137.94 127.734 137.37C127.734 136.799 127.884 136.379 128.155 136.138C128.425 135.898 128.905 135.778 129.596 135.778H132.749V128.662H131.097C130.437 128.662 129.956 128.541 129.686 128.271C129.416 128.031 129.266 127.611 129.266 127.04C129.266 126.47 129.386 126.049 129.686 125.809C129.956 125.569 130.407 125.449 131.097 125.449H135.511C135.782 125.449 135.992 125.509 136.142 125.599C136.292 125.719 136.352 125.869 136.352 126.079V135.778ZM134.25 118.812C134.971 118.812 135.421 118.963 135.662 119.233C135.902 119.503 136.022 120.164 136.022 121.185C136.022 122.176 135.902 122.806 135.692 123.046C135.481 123.287 135.001 123.407 134.22 123.407C133.44 123.407 132.959 123.287 132.749 123.076C132.509 122.836 132.419 122.386 132.419 121.725C132.419 120.464 132.539 119.683 132.749 119.323C132.989 118.993 133.47 118.812 134.25 118.812Z" fill="white"/>
<path d="M151.347 126.411H155.822C156.512 126.411 156.963 126.531 157.263 126.771C157.533 127.041 157.683 127.432 157.683 128.002C157.683 128.573 157.533 128.993 157.263 129.234C156.963 129.504 156.482 129.624 155.822 129.624H151.347V133.377C151.347 134.428 151.498 135.149 151.828 135.539C152.158 135.93 152.729 136.14 153.539 136.14C154.29 136.14 155.191 135.93 156.242 135.479C157.263 135.029 157.954 134.819 158.314 134.819C158.704 134.819 159.065 134.969 159.335 135.299C159.635 135.599 159.785 135.99 159.785 136.44C159.785 137.191 159.095 137.882 157.743 138.512C156.362 139.113 154.831 139.443 153.089 139.443C152.098 139.443 151.197 139.293 150.447 139.023C149.666 138.752 149.065 138.362 148.645 137.852C148.315 137.461 148.074 136.981 147.954 136.44C147.804 135.9 147.744 134.969 147.744 133.708V129.624H146.363C145.702 129.624 145.222 129.504 144.951 129.234C144.681 128.993 144.531 128.573 144.531 128.002C144.531 127.432 144.681 127.011 144.951 126.771C145.222 126.531 145.702 126.411 146.363 126.411H147.744V122.988C147.744 122.297 147.894 121.847 148.164 121.576C148.435 121.276 148.915 121.156 149.546 121.156C150.206 121.156 150.657 121.276 150.927 121.576C151.197 121.847 151.347 122.297 151.347 122.988V126.411Z" fill="white"/>
<path d="M166.494 138.845C166.224 139.055 165.984 139.205 165.714 139.295C165.443 139.386 165.173 139.446 164.873 139.446C164.452 139.446 164.152 139.326 164.002 139.115C163.822 138.875 163.732 138.455 163.732 137.854V135.902C163.732 135.272 163.852 134.791 164.062 134.521C164.272 134.251 164.633 134.131 165.173 134.131C165.744 134.131 166.224 134.401 166.584 134.971C166.795 135.272 166.975 135.482 167.125 135.632C167.605 136.082 168.146 136.383 168.806 136.593C169.437 136.833 170.158 136.923 170.968 136.923C171.659 136.923 172.23 136.803 172.65 136.533C173.07 136.233 173.281 135.902 173.281 135.452C173.281 134.671 172.14 134.101 169.887 133.8C169.407 133.74 169.017 133.68 168.716 133.65C167.005 133.41 165.744 132.96 164.933 132.269C164.092 131.578 163.672 130.647 163.672 129.476C163.672 128.095 164.182 127.044 165.173 126.293C166.164 125.543 167.605 125.152 169.437 125.152C170.068 125.152 170.728 125.212 171.389 125.302C172.08 125.423 172.74 125.573 173.461 125.783C173.671 125.543 173.881 125.363 174.121 125.242C174.332 125.122 174.602 125.062 174.872 125.062C175.292 125.062 175.593 125.182 175.803 125.453C176.013 125.693 176.103 126.053 176.103 126.564V128.365C176.103 128.786 176.013 129.116 175.773 129.356C175.563 129.566 175.262 129.687 174.872 129.687C174.482 129.687 173.791 129.326 172.83 128.636C171.839 127.945 170.878 127.585 169.887 127.585C169.137 127.585 168.536 127.705 168.116 127.975C167.695 128.215 167.485 128.545 167.485 128.996C167.485 129.687 168.356 130.137 170.128 130.377C170.638 130.437 171.029 130.497 171.329 130.527C173.551 130.858 175.052 131.338 175.893 131.969C176.704 132.599 177.124 133.56 177.124 134.821C177.124 136.293 176.584 137.434 175.473 138.245C174.392 139.055 172.86 139.446 170.848 139.446C170.068 139.446 169.317 139.386 168.596 139.295C167.876 139.205 167.155 139.055 166.494 138.845Z" fill="white"/>
</svg>
