<svg width="76" height="45" viewBox="0 0 76 45" fill="none" xmlns="http://www.w3.org/2000/svg">
<rect x="0.5" width="75" height="45" rx="22.5" fill="#232E35"/>
<path class="activo" fill-rule="evenodd" clip-rule="evenodd" d="M35.9487 2.68377C35.8126 2.27543 35.4304 2 35 2C34.5696 2 34.1874 2.27543 34.0513 2.68377L31.2792 11H28C27.4477 11 27 11.4477 27 12C27 12.5523 27.4477 13 28 13H32C32.4304 13 32.8126 12.7246 32.9487 12.3162L35 6.16228L40.0513 21.3162C40.1874 21.7246 40.5696 22 41 22C41.4304 22 41.8126 21.7246 41.9487 21.3162L44.7208 13H48C48.5523 13 49 12.5523 49 12C49 11.4477 48.5523 11 48 11H44C43.5696 11 43.1874 11.2754 43.0513 11.6838L41 17.8377L35.9487 2.68377Z" fill="#FFFFFE"/>
<path class="activo" d="M2.306 40C2.12867 40 1.984 39.9487 1.872 39.846C1.76933 39.7433 1.718 39.608 1.718 39.44V30.69C1.718 30.522 1.76933 30.3867 1.872 30.284C1.984 30.1813 2.12867 30.13 2.306 30.13H7.542C7.71 30.13 7.84067 30.172 7.934 30.256C8.02733 30.34 8.074 30.4567 8.074 30.606C8.074 30.7553 8.02733 30.872 7.934 30.956C7.84067 31.04 7.71 31.082 7.542 31.082H2.852V34.512H7.262C7.43 34.512 7.56067 34.554 7.654 34.638C7.74733 34.722 7.794 34.8387 7.794 34.988C7.794 35.1373 7.74733 35.254 7.654 35.338C7.56067 35.422 7.43 35.464 7.262 35.464H2.852V39.048H7.542C7.71 39.048 7.84067 39.09 7.934 39.174C8.02733 39.2487 8.074 39.3653 8.074 39.524C8.074 39.6733 8.02733 39.79 7.934 39.874C7.84067 39.958 7.71 40 7.542 40H2.306ZM12.0644 40.098C11.6351 40.098 11.2244 40.0467 10.8324 39.944C10.4498 39.8413 10.1091 39.6967 9.81044 39.51C9.64244 39.398 9.5211 39.2953 9.44644 39.202C9.3811 39.0993 9.34844 38.978 9.34844 38.838C9.34844 38.7167 9.3811 38.6187 9.44644 38.544C9.5211 38.46 9.61444 38.418 9.72644 38.418C9.83844 38.418 10.0018 38.488 10.2164 38.628C10.4964 38.796 10.7718 38.9313 11.0424 39.034C11.3224 39.1273 11.6678 39.174 12.0784 39.174C12.5824 39.174 12.9744 39.0853 13.2544 38.908C13.5344 38.7307 13.6744 38.474 13.6744 38.138C13.6744 37.9327 13.6231 37.7693 13.5204 37.648C13.4178 37.5173 13.2404 37.4053 12.9884 37.312C12.7364 37.2093 12.3678 37.1067 11.8824 37.004C11.0611 36.8267 10.4731 36.5887 10.1184 36.29C9.76377 35.9913 9.58644 35.5853 9.58644 35.072C9.58644 34.6707 9.69844 34.316 9.92244 34.008C10.1464 33.7 10.4544 33.4573 10.8464 33.28C11.2478 33.1027 11.7004 33.014 12.2044 33.014C12.5684 33.014 12.9184 33.0653 13.2544 33.168C13.5998 33.2613 13.9031 33.3967 14.1644 33.574C14.4818 33.798 14.6404 34.0313 14.6404 34.274C14.6404 34.3953 14.6031 34.498 14.5284 34.582C14.4538 34.666 14.3651 34.708 14.2624 34.708C14.1504 34.708 13.9824 34.6287 13.7584 34.47C13.4971 34.302 13.2498 34.1713 13.0164 34.078C12.7831 33.9847 12.4938 33.938 12.1484 33.938C11.7098 33.938 11.3551 34.036 11.0844 34.232C10.8231 34.428 10.6924 34.6893 10.6924 35.016C10.6924 35.2213 10.7391 35.3893 10.8324 35.52C10.9351 35.6413 11.0984 35.7533 11.3224 35.856C11.5558 35.9493 11.8871 36.0427 12.3164 36.136C12.9511 36.276 13.4411 36.43 13.7864 36.598C14.1411 36.766 14.3931 36.9713 14.5424 37.214C14.6918 37.4567 14.7664 37.7647 14.7664 38.138C14.7664 38.726 14.5191 39.202 14.0244 39.566C13.5298 39.9207 12.8764 40.098 12.0644 40.098ZM19.6466 39.174C19.9733 39.202 20.1366 39.3513 20.1366 39.622C20.1366 39.7807 20.076 39.902 19.9546 39.986C19.8426 40.0607 19.67 40.0887 19.4366 40.07L19.0586 40.042C18.312 39.986 17.7613 39.762 17.4066 39.37C17.052 38.978 16.8746 38.3853 16.8746 37.592V34.078H15.9366C15.778 34.078 15.652 34.0407 15.5586 33.966C15.4746 33.882 15.4326 33.7747 15.4326 33.644C15.4326 33.504 15.4746 33.392 15.5586 33.308C15.652 33.224 15.778 33.182 15.9366 33.182H16.8746V31.6C16.8746 31.4227 16.926 31.2873 17.0286 31.194C17.1313 31.0913 17.2713 31.04 17.4486 31.04C17.6166 31.04 17.752 31.0913 17.8546 31.194C17.9573 31.2873 18.0086 31.4227 18.0086 31.6V33.182H19.5626C19.712 33.182 19.8286 33.224 19.9126 33.308C20.006 33.392 20.0526 33.504 20.0526 33.644C20.0526 33.7747 20.006 33.882 19.9126 33.966C19.8286 34.0407 19.712 34.078 19.5626 34.078H18.0086V37.648C18.0086 38.1613 18.1113 38.5347 18.3166 38.768C18.5313 38.992 18.8486 39.118 19.2686 39.146L19.6466 39.174ZM24.1105 33.014C25.8185 33.014 26.6725 33.91 26.6725 35.702V39.51C26.6725 39.678 26.6211 39.8133 26.5185 39.916C26.4251 40.0187 26.2945 40.07 26.1265 40.07C25.9585 40.07 25.8231 40.0187 25.7205 39.916C25.6178 39.8133 25.5665 39.678 25.5665 39.51V38.838C25.3891 39.2393 25.1185 39.552 24.7545 39.776C24.3905 39.9907 23.9705 40.098 23.4945 40.098C23.0558 40.098 22.6498 40.0093 22.2765 39.832C21.9125 39.6547 21.6231 39.4073 21.4085 39.09C21.1938 38.7727 21.0865 38.4227 21.0865 38.04C21.0865 37.5267 21.2171 37.13 21.4785 36.85C21.7398 36.5607 22.1691 36.3553 22.7665 36.234C23.3638 36.1033 24.1945 36.038 25.2585 36.038H25.5665V35.576C25.5665 35.016 25.4498 34.6053 25.2165 34.344C24.9925 34.0827 24.6238 33.952 24.1105 33.952C23.4758 33.952 22.8318 34.1247 22.1785 34.47C21.9265 34.6287 21.7491 34.708 21.6465 34.708C21.5345 34.708 21.4411 34.666 21.3665 34.582C21.2918 34.498 21.2545 34.3907 21.2545 34.26C21.2545 34.1293 21.2918 34.0173 21.3665 33.924C21.4505 33.8213 21.5811 33.7187 21.7585 33.616C22.0851 33.4293 22.4538 33.2847 22.8645 33.182C23.2845 33.07 23.6998 33.014 24.1105 33.014ZM23.6485 39.202C24.2085 39.202 24.6658 39.0153 25.0205 38.642C25.3845 38.2593 25.5665 37.7693 25.5665 37.172V36.766H25.3145C24.4931 36.766 23.8678 36.8033 23.4385 36.878C23.0091 36.9433 22.7011 37.06 22.5145 37.228C22.3371 37.3867 22.2485 37.6247 22.2485 37.942C22.2485 38.306 22.3791 38.6093 22.6405 38.852C22.9111 39.0853 23.2471 39.202 23.6485 39.202ZM34.2923 30.06C34.4696 30.06 34.6096 30.1113 34.7123 30.214C34.8149 30.3167 34.8663 30.4473 34.8663 30.606V39.51C34.8663 39.678 34.8149 39.8133 34.7123 39.916C34.6096 40.0187 34.4696 40.07 34.2923 40.07C34.1149 40.07 33.9749 40.0187 33.8723 39.916C33.7789 39.8133 33.7323 39.678 33.7323 39.51V38.754C33.5269 39.1833 33.2236 39.5147 32.8223 39.748C32.4303 39.9813 31.9683 40.098 31.4363 40.098C30.8389 40.098 30.3116 39.9487 29.8543 39.65C29.3969 39.3513 29.0423 38.936 28.7903 38.404C28.5383 37.8627 28.4123 37.2373 28.4123 36.528C28.4123 35.828 28.5383 35.212 28.7903 34.68C29.0423 34.148 29.3969 33.7373 29.8543 33.448C30.3116 33.1587 30.8389 33.014 31.4363 33.014C31.9683 33.014 32.4303 33.1307 32.8223 33.364C33.2236 33.5973 33.5269 33.9287 33.7323 34.358V30.606C33.7323 30.438 33.7789 30.3073 33.8723 30.214C33.9749 30.1113 34.1149 30.06 34.2923 30.06ZM31.6603 39.16C32.3229 39.16 32.8316 38.936 33.1863 38.488C33.5503 38.0307 33.7323 37.3867 33.7323 36.556C33.7323 35.7253 33.5503 35.086 33.1863 34.638C32.8316 34.19 32.3229 33.966 31.6603 33.966C30.9976 33.966 30.4796 34.19 30.1063 34.638C29.7423 35.086 29.5603 35.716 29.5603 36.528C29.5603 37.3587 29.7423 38.0073 30.1063 38.474C30.4796 38.9313 30.9976 39.16 31.6603 39.16ZM37.6107 40.07C37.4427 40.07 37.3027 40.0233 37.1907 39.93C37.0881 39.8273 37.0367 39.6873 37.0367 39.51V33.602C37.0367 33.4247 37.0881 33.2893 37.1907 33.196C37.3027 33.0933 37.4427 33.042 37.6107 33.042C37.7787 33.042 37.9141 33.0933 38.0167 33.196C38.1194 33.2893 38.1707 33.4247 38.1707 33.602V39.51C38.1707 39.6967 38.1194 39.8367 38.0167 39.93C37.9141 40.0233 37.7787 40.07 37.6107 40.07ZM37.8627 32.272C37.7881 32.328 37.7134 32.356 37.6387 32.356C37.5454 32.356 37.4661 32.328 37.4007 32.272C37.3354 32.2067 37.3027 32.132 37.3027 32.048C37.3027 31.9733 37.3307 31.9033 37.3867 31.838L39.0107 29.71C39.1787 29.4953 39.3701 29.388 39.5847 29.388C39.7341 29.388 39.8601 29.4393 39.9627 29.542C40.0654 29.6353 40.1167 29.7567 40.1167 29.906C40.1167 30.102 40.0234 30.2793 39.8367 30.438L37.8627 32.272ZM42.6566 40.098C42.2273 40.098 41.8166 40.0467 41.4246 39.944C41.042 39.8413 40.7013 39.6967 40.4026 39.51C40.2346 39.398 40.1133 39.2953 40.0386 39.202C39.9733 39.0993 39.9406 38.978 39.9406 38.838C39.9406 38.7167 39.9733 38.6187 40.0386 38.544C40.1133 38.46 40.2066 38.418 40.3186 38.418C40.4306 38.418 40.594 38.488 40.8086 38.628C41.0886 38.796 41.364 38.9313 41.6346 39.034C41.9146 39.1273 42.26 39.174 42.6706 39.174C43.1746 39.174 43.5666 39.0853 43.8466 38.908C44.1266 38.7307 44.2666 38.474 44.2666 38.138C44.2666 37.9327 44.2153 37.7693 44.1126 37.648C44.01 37.5173 43.8326 37.4053 43.5806 37.312C43.3286 37.2093 42.96 37.1067 42.4746 37.004C41.6533 36.8267 41.0653 36.5887 40.7106 36.29C40.356 35.9913 40.1786 35.5853 40.1786 35.072C40.1786 34.6707 40.2906 34.316 40.5146 34.008C40.7386 33.7 41.0466 33.4573 41.4386 33.28C41.84 33.1027 42.2926 33.014 42.7966 33.014C43.1606 33.014 43.5106 33.0653 43.8466 33.168C44.192 33.2613 44.4953 33.3967 44.7566 33.574C45.074 33.798 45.2326 34.0313 45.2326 34.274C45.2326 34.3953 45.1953 34.498 45.1206 34.582C45.046 34.666 44.9573 34.708 44.8546 34.708C44.7426 34.708 44.5746 34.6287 44.3506 34.47C44.0893 34.302 43.842 34.1713 43.6086 34.078C43.3753 33.9847 43.086 33.938 42.7406 33.938C42.302 33.938 41.9473 34.036 41.6766 34.232C41.4153 34.428 41.2846 34.6893 41.2846 35.016C41.2846 35.2213 41.3313 35.3893 41.4246 35.52C41.5273 35.6413 41.6906 35.7533 41.9146 35.856C42.148 35.9493 42.4793 36.0427 42.9086 36.136C43.5433 36.276 44.0333 36.43 44.3786 36.598C44.7333 36.766 44.9853 36.9713 45.1346 37.214C45.284 37.4567 45.3586 37.7647 45.3586 38.138C45.3586 38.726 45.1113 39.202 44.6166 39.566C44.122 39.9207 43.4686 40.098 42.6566 40.098ZM50.2388 39.174C50.5655 39.202 50.7288 39.3513 50.7288 39.622C50.7288 39.7807 50.6682 39.902 50.5468 39.986C50.4348 40.0607 50.2622 40.0887 50.0288 40.07L49.6508 40.042C48.9042 39.986 48.3535 39.762 47.9988 39.37C47.6442 38.978 47.4668 38.3853 47.4668 37.592V34.078H46.5288C46.3702 34.078 46.2442 34.0407 46.1508 33.966C46.0668 33.882 46.0248 33.7747 46.0248 33.644C46.0248 33.504 46.0668 33.392 46.1508 33.308C46.2442 33.224 46.3702 33.182 46.5288 33.182H47.4668V31.6C47.4668 31.4227 47.5182 31.2873 47.6208 31.194C47.7235 31.0913 47.8635 31.04 48.0408 31.04C48.2088 31.04 48.3442 31.0913 48.4468 31.194C48.5495 31.2873 48.6008 31.4227 48.6008 31.6V33.182H50.1548C50.3042 33.182 50.4208 33.224 50.5048 33.308C50.5982 33.392 50.6448 33.504 50.6448 33.644C50.6448 33.7747 50.5982 33.882 50.5048 33.966C50.4208 34.0407 50.3042 34.078 50.1548 34.078H48.6008V37.648C48.6008 38.1613 48.7035 38.5347 48.9088 38.768C49.1235 38.992 49.4408 39.118 49.8608 39.146L50.2388 39.174ZM52.4906 40.07C52.3226 40.07 52.1826 40.0233 52.0706 39.93C51.968 39.8273 51.9166 39.6873 51.9166 39.51V33.602C51.9166 33.4247 51.968 33.2893 52.0706 33.196C52.1826 33.0933 52.3226 33.042 52.4906 33.042C52.6586 33.042 52.794 33.0933 52.8966 33.196C52.9993 33.2893 53.0506 33.4247 53.0506 33.602V39.51C53.0506 39.6967 52.9993 39.8367 52.8966 39.93C52.794 40.0233 52.6586 40.07 52.4906 40.07ZM52.4906 31.572C52.2666 31.572 52.0846 31.5067 51.9446 31.376C51.8046 31.2453 51.7346 31.0727 51.7346 30.858C51.7346 30.6527 51.8046 30.4847 51.9446 30.354C52.0846 30.2233 52.2666 30.158 52.4906 30.158C52.7146 30.158 52.8966 30.2233 53.0366 30.354C53.1766 30.4847 53.2466 30.6527 53.2466 30.858C53.2466 31.0727 53.1766 31.2453 53.0366 31.376C52.8966 31.5067 52.7146 31.572 52.4906 31.572ZM58.0545 40.098C57.4199 40.098 56.8552 39.9533 56.3605 39.664C55.8752 39.3747 55.4972 38.964 55.2265 38.432C54.9652 37.9 54.8345 37.284 54.8345 36.584C54.8345 35.884 54.9699 35.2633 55.2405 34.722C55.5205 34.1807 55.9079 33.7607 56.4025 33.462C56.8972 33.1633 57.4665 33.014 58.1105 33.014C58.4652 33.014 58.8152 33.0653 59.1605 33.168C59.5152 33.2613 59.8232 33.4013 60.0845 33.588C60.2525 33.7 60.3692 33.812 60.4345 33.924C60.5092 34.0267 60.5465 34.1433 60.5465 34.274C60.5465 34.4047 60.5092 34.512 60.4345 34.596C60.3692 34.68 60.2805 34.722 60.1685 34.722C60.1032 34.722 60.0332 34.7033 59.9585 34.666C59.8839 34.6287 59.8185 34.5913 59.7625 34.554C59.7159 34.5167 59.6832 34.4933 59.6645 34.484C59.4219 34.3253 59.1885 34.1993 58.9645 34.106C58.7499 34.0127 58.4839 33.966 58.1665 33.966C57.4852 33.966 56.9532 34.1993 56.5705 34.666C56.1972 35.1233 56.0105 35.7627 56.0105 36.584C56.0105 37.4053 56.1972 38.04 56.5705 38.488C56.9532 38.936 57.4852 39.16 58.1665 39.16C58.4839 39.16 58.7545 39.1133 58.9785 39.02C59.2119 38.9267 59.4452 38.8007 59.6785 38.642C59.7812 38.5767 59.8792 38.5207 59.9725 38.474C60.0659 38.4273 60.1452 38.404 60.2105 38.404C60.3132 38.404 60.3972 38.446 60.4625 38.53C60.5372 38.614 60.5745 38.7213 60.5745 38.852C60.5745 38.9733 60.5419 39.0853 60.4765 39.188C60.4112 39.2813 60.2899 39.3887 60.1125 39.51C59.8512 39.6873 59.5339 39.832 59.1605 39.944C58.7965 40.0467 58.4279 40.098 58.0545 40.098ZM64.7958 33.014C66.5038 33.014 67.3578 33.91 67.3578 35.702V39.51C67.3578 39.678 67.3064 39.8133 67.2038 39.916C67.1104 40.0187 66.9798 40.07 66.8118 40.07C66.6438 40.07 66.5084 40.0187 66.4058 39.916C66.3031 39.8133 66.2518 39.678 66.2518 39.51V38.838C66.0744 39.2393 65.8038 39.552 65.4398 39.776C65.0758 39.9907 64.6558 40.098 64.1798 40.098C63.7411 40.098 63.3351 40.0093 62.9618 39.832C62.5978 39.6547 62.3084 39.4073 62.0938 39.09C61.8791 38.7727 61.7718 38.4227 61.7718 38.04C61.7718 37.5267 61.9024 37.13 62.1638 36.85C62.4251 36.5607 62.8544 36.3553 63.4518 36.234C64.0491 36.1033 64.8798 36.038 65.9438 36.038H66.2518V35.576C66.2518 35.016 66.1351 34.6053 65.9018 34.344C65.6778 34.0827 65.3091 33.952 64.7958 33.952C64.1611 33.952 63.5171 34.1247 62.8638 34.47C62.6118 34.6287 62.4344 34.708 62.3318 34.708C62.2198 34.708 62.1264 34.666 62.0518 34.582C61.9771 34.498 61.9398 34.3907 61.9398 34.26C61.9398 34.1293 61.9771 34.0173 62.0518 33.924C62.1358 33.8213 62.2664 33.7187 62.4438 33.616C62.7704 33.4293 63.1391 33.2847 63.5498 33.182C63.9698 33.07 64.3851 33.014 64.7958 33.014ZM64.3338 39.202C64.8938 39.202 65.3511 39.0153 65.7058 38.642C66.0698 38.2593 66.2518 37.7693 66.2518 37.172V36.766H65.9998C65.1784 36.766 64.5531 36.8033 64.1238 36.878C63.6944 36.9433 63.3864 37.06 63.1998 37.228C63.0224 37.3867 62.9338 37.6247 62.9338 37.942C62.9338 38.306 63.0644 38.6093 63.3258 38.852C63.5964 39.0853 63.9324 39.202 64.3338 39.202ZM71.7996 40.098C71.3703 40.098 70.9596 40.0467 70.5676 39.944C70.1849 39.8413 69.8443 39.6967 69.5456 39.51C69.3776 39.398 69.2563 39.2953 69.1816 39.202C69.1163 39.0993 69.0836 38.978 69.0836 38.838C69.0836 38.7167 69.1163 38.6187 69.1816 38.544C69.2563 38.46 69.3496 38.418 69.4616 38.418C69.5736 38.418 69.7369 38.488 69.9516 38.628C70.2316 38.796 70.5069 38.9313 70.7776 39.034C71.0576 39.1273 71.4029 39.174 71.8136 39.174C72.3176 39.174 72.7096 39.0853 72.9896 38.908C73.2696 38.7307 73.4096 38.474 73.4096 38.138C73.4096 37.9327 73.3583 37.7693 73.2556 37.648C73.1529 37.5173 72.9756 37.4053 72.7236 37.312C72.4716 37.2093 72.1029 37.1067 71.6176 37.004C70.7963 36.8267 70.2083 36.5887 69.8536 36.29C69.4989 35.9913 69.3216 35.5853 69.3216 35.072C69.3216 34.6707 69.4336 34.316 69.6576 34.008C69.8816 33.7 70.1896 33.4573 70.5816 33.28C70.9829 33.1027 71.4356 33.014 71.9396 33.014C72.3036 33.014 72.6536 33.0653 72.9896 33.168C73.3349 33.2613 73.6383 33.3967 73.8996 33.574C74.2169 33.798 74.3756 34.0313 74.3756 34.274C74.3756 34.3953 74.3383 34.498 74.2636 34.582C74.1889 34.666 74.1003 34.708 73.9976 34.708C73.8856 34.708 73.7176 34.6287 73.4936 34.47C73.2323 34.302 72.9849 34.1713 72.7516 34.078C72.5183 33.9847 72.2289 33.938 71.8836 33.938C71.4449 33.938 71.0903 34.036 70.8196 34.232C70.5583 34.428 70.4276 34.6893 70.4276 35.016C70.4276 35.2213 70.4743 35.3893 70.5676 35.52C70.6703 35.6413 70.8336 35.7533 71.0576 35.856C71.2909 35.9493 71.6223 36.0427 72.0516 36.136C72.6863 36.276 73.1763 36.43 73.5216 36.598C73.8763 36.766 74.1283 36.9713 74.2776 37.214C74.4269 37.4567 74.5016 37.7647 74.5016 38.138C74.5016 38.726 74.2543 39.202 73.7596 39.566C73.2649 39.9207 72.6116 40.098 71.7996 40.098Z" fill="#FFFFFE"/>
</svg>
