<svg width="35" height="45" viewBox="0 0 35 45" fill="none" xmlns="http://www.w3.org/2000/svg">
<rect x="0.5" width="34" height="45" rx="17" fill="#232E35"/>
<path fill-rule="evenodd" clip-rule="evenodd" d="M14.5 7C14.5 5.34315 15.8431 4 17.5 4C19.1569 4 20.5 5.34315 20.5 7C20.5 8.65685 19.1569 10 17.5 10C15.8431 10 14.5 8.65685 14.5 7ZM17.5 2C14.7386 2 12.5 4.23858 12.5 7C12.5 9.76142 14.7386 12 17.5 12C20.2614 12 22.5 9.76142 22.5 7C22.5 4.23858 20.2614 2 17.5 2ZM13.5 14C12.1739 14 10.9021 14.5268 9.96447 15.4645C9.02678 16.4021 8.5 17.6739 8.5 19V21C8.5 21.5523 8.94772 22 9.5 22C10.0523 22 10.5 21.5523 10.5 21V19C10.5 18.2043 10.8161 17.4413 11.3787 16.8787C11.9413 16.3161 12.7044 16 13.5 16H21.5C22.2956 16 23.0587 16.3161 23.6213 16.8787C24.1839 17.4413 24.5 18.2044 24.5 19V21C24.5 21.5523 24.9477 22 25.5 22C26.0523 22 26.5 21.5523 26.5 21V19C26.5 17.6739 25.9732 16.4021 25.0355 15.4645C24.0979 14.5268 22.8261 14 21.5 14H13.5Z" fill="#FFFFFE"/>
<path d="M2.292 40.07C2.11467 40.07 1.97467 40.0187 1.872 39.916C1.76933 39.804 1.718 39.6593 1.718 39.482V30.69C1.718 30.522 1.76933 30.3867 1.872 30.284C1.984 30.1813 2.12867 30.13 2.306 30.13H5.624C6.66 30.13 7.46267 30.382 8.032 30.886C8.61067 31.39 8.9 32.104 8.9 33.028C8.9 33.952 8.61067 34.6707 8.032 35.184C7.45333 35.6973 6.65067 35.954 5.624 35.954H2.866V39.482C2.866 39.6593 2.81467 39.804 2.712 39.916C2.60933 40.0187 2.46933 40.07 2.292 40.07ZM5.512 35.002C7.01467 35.002 7.766 34.344 7.766 33.028C7.766 31.7307 7.01467 31.082 5.512 31.082H2.866V35.002H5.512ZM15.7027 38.418C15.8054 38.418 15.894 38.46 15.9687 38.544C16.0434 38.628 16.0807 38.7353 16.0807 38.866C16.0807 39.0993 15.9174 39.314 15.5907 39.51C15.2547 39.706 14.9 39.8553 14.5267 39.958C14.1534 40.0513 13.7894 40.098 13.4347 40.098C12.38 40.098 11.5447 39.7853 10.9287 39.16C10.322 38.5347 10.0187 37.6713 10.0187 36.57C10.0187 35.87 10.154 35.254 10.4247 34.722C10.6954 34.1807 11.0734 33.7607 11.5587 33.462C12.0534 33.1633 12.6134 33.014 13.2387 33.014C14.1254 33.014 14.83 33.3033 15.3527 33.882C15.8754 34.4607 16.1367 35.2447 16.1367 36.234C16.1367 36.4207 16.0994 36.556 16.0247 36.64C15.95 36.724 15.8287 36.766 15.6607 36.766H11.1527C11.2367 38.3713 11.9974 39.174 13.4347 39.174C13.7987 39.174 14.1114 39.1273 14.3727 39.034C14.634 38.9313 14.914 38.796 15.2127 38.628C15.4554 38.488 15.6187 38.418 15.7027 38.418ZM13.2527 33.896C12.6554 33.896 12.1747 34.0827 11.8107 34.456C11.456 34.8293 11.246 35.3567 11.1807 36.038H15.1427C15.124 35.3473 14.9514 34.82 14.6247 34.456C14.298 34.0827 13.8407 33.896 13.2527 33.896ZM21.2515 33.042C21.6435 33.014 21.8395 33.1727 21.8395 33.518C21.8395 33.6673 21.7975 33.7887 21.7135 33.882C21.6295 33.966 21.4848 34.0173 21.2795 34.036L20.8595 34.078C20.2342 34.134 19.7675 34.358 19.4595 34.75C19.1608 35.1327 19.0115 35.5853 19.0115 36.108V39.51C19.0115 39.6967 18.9602 39.8367 18.8575 39.93C18.7548 40.0233 18.6195 40.07 18.4515 40.07C18.2835 40.07 18.1435 40.0233 18.0315 39.93C17.9288 39.8273 17.8775 39.6873 17.8775 39.51V33.602C17.8775 33.4247 17.9335 33.2893 18.0455 33.196C18.1575 33.0933 18.2928 33.042 18.4515 33.042C18.6008 33.042 18.7268 33.0933 18.8295 33.196C18.9322 33.2893 18.9835 33.42 18.9835 33.588V34.372C19.1795 33.9613 19.4548 33.6487 19.8095 33.434C20.1735 33.2193 20.5888 33.0933 21.0555 33.056L21.2515 33.042ZM28.6519 33.182C28.8106 33.182 28.9319 33.224 29.0159 33.308C29.0999 33.392 29.1419 33.504 29.1419 33.644V39.51C29.1419 39.6873 29.0859 39.8273 28.9739 39.93C28.8713 40.0233 28.7406 40.07 28.5819 40.07C28.4139 40.07 28.2739 40.0233 28.1619 39.93C28.0593 39.8273 28.0079 39.6873 28.0079 39.51V34.078H24.9419V39.51C24.9419 39.6873 24.8859 39.8273 24.7739 39.93C24.6713 40.0233 24.5406 40.07 24.3819 40.07C24.2139 40.07 24.0739 40.0233 23.9619 39.93C23.8593 39.8273 23.8079 39.6873 23.8079 39.51V34.078H22.8699C22.7113 34.078 22.5853 34.0407 22.4919 33.966C22.4079 33.882 22.3659 33.7747 22.3659 33.644C22.3659 33.504 22.4079 33.392 22.4919 33.308C22.5853 33.224 22.7113 33.182 22.8699 33.182H23.8079V32.944C23.8079 32.104 24.0179 31.446 24.4379 30.97C24.8579 30.4847 25.4599 30.2093 26.2439 30.144L26.5799 30.116C27.0279 30.0787 27.2519 30.2187 27.2519 30.536C27.2519 30.8067 27.0933 30.9607 26.7759 30.998L26.4399 31.026C25.9453 31.0633 25.5719 31.222 25.3199 31.502C25.0679 31.7727 24.9419 32.1833 24.9419 32.734V33.182H28.6519ZM28.5819 30.158C28.7966 30.158 28.9739 30.2233 29.1139 30.354C29.2633 30.4847 29.3379 30.6527 29.3379 30.858C29.3379 31.0727 29.2679 31.2453 29.1279 31.376C28.9879 31.5067 28.8059 31.572 28.5819 31.572C28.3579 31.572 28.1759 31.5067 28.0359 31.376C27.8959 31.2453 27.8259 31.0727 27.8259 30.858C27.8259 30.6527 27.8959 30.4847 28.0359 30.354C28.1759 30.2233 28.3579 30.158 28.5819 30.158ZM31.8942 40.07C31.7262 40.07 31.5862 40.0233 31.4742 39.93C31.3716 39.8273 31.3202 39.6873 31.3202 39.51V30.62C31.3202 30.4427 31.3716 30.3073 31.4742 30.214C31.5862 30.1113 31.7262 30.06 31.8942 30.06C32.0529 30.06 32.1836 30.1113 32.2862 30.214C32.3982 30.3073 32.4542 30.4427 32.4542 30.62V39.51C32.4542 39.6873 32.3982 39.8273 32.2862 39.93C32.1836 40.0233 32.0529 40.07 31.8942 40.07Z" fill="#FFFFFE"/>
</svg>
